Coordinates
version=1
nRows=21
nColumns=12
inDegrees=yes

Units are S.I. units (second, meters, Newtons, ...)
Angles are in degrees

endheader
time	SC_y	SC_z	SC_x	AC_y	AC_z	AC_x	GH_y	GH_z	GH_yy	EL_x	PS_y
       0.0              -37.86          22.78          57.04          60.28         -18.87         -4.115         -121.3         -12.48           65.0          21.07          155.2
   0.03198              -37.87          22.78          57.04          60.27         -18.87         -4.115         -121.3         -12.47          64.99          21.08          155.2
   0.06396              -37.87          22.78          57.05          60.27         -18.87         -4.114         -121.3         -12.46          64.98          21.08          155.2
   0.09595              -37.87          22.77          57.05          60.27         -18.87         -4.114         -121.3         -12.45          64.98          21.09          155.1
    0.1279              -37.87          22.77          57.06          60.27         -18.87         -4.113         -121.3         -12.44          64.97           21.1          155.1
    0.1599              -37.87          22.77          57.06          60.27         -18.87         -4.113         -121.3         -12.42          64.96          21.11          155.1
    0.1919              -37.87          22.76          57.07          60.26         -18.87         -4.112         -121.3         -12.41          64.95          21.12          155.0
    0.2239              -37.88          22.76          57.07          60.26         -18.87         -4.112         -121.3         -12.39          64.95          21.13          155.0
    0.2559              -37.88          22.76          57.08          60.26         -18.87         -4.111         -121.3         -12.38          64.94          21.15          155.0
    0.2878              -37.88          22.75          57.08          60.25         -18.87         -4.111         -121.3         -12.36          64.93          21.16          154.9
    0.3198              -37.88          22.75          57.09          60.25         -18.87          -4.11         -121.3         -12.34          64.92          21.17          154.9
    0.3518              -37.89          22.74           57.1          60.25         -18.87         -4.109         -121.3         -12.32          64.91          21.19          154.9
    0.3838              -37.89          22.74          57.11          60.24         -18.87         -4.108         -121.3          -12.3          64.89          21.21          154.8
    0.4158              -37.89          22.73          57.12          60.24         -18.87         -4.108         -121.3         -12.28          64.88          21.22          154.8
    0.4478               -37.9          22.73          57.13          60.24         -18.87         -4.107         -121.3         -12.25          64.87          21.24          154.7
    0.4797               -37.9          22.72          57.14          60.23         -18.87         -4.106         -121.2         -12.22          64.85          21.26          154.7
    0.5117               -37.9          22.71          57.15          60.23         -18.87         -4.105         -121.2         -12.19          64.83          21.29          154.6
    0.5437              -37.91          22.71          57.16          60.22         -18.87         -4.104         -121.2         -12.16          64.82          21.31          154.5
    0.5757              -37.91           22.7          57.17          60.21         -18.87         -4.102         -121.2         -12.12           64.8          21.34          154.5
    0.6077              -37.92          22.69          57.19          60.21         -18.87         -4.101         -121.2         -12.08          64.77          21.37          154.4
    0.6396              -37.92          22.68           57.2           60.2         -18.87         -4.099         -121.2         -12.04          64.75           21.4          154.3
